<?xml version="1.0" standalone="no"?>
<!DOCTYPE svg PUBLIC "-//W3C//DTD SVG 20010904//EN"
 "http://www.w3.org/TR/2001/REC-SVG-20010904/DTD/svg10.dtd">
<svg version="1.0" xmlns="http://www.w3.org/2000/svg"
 width="80.000000pt" height="80.000000pt" viewBox="0 0 80.000000 80.000000"
 preserveAspectRatio="xMidYMid meet">
<metadata>
Created by potrace 1.14, written by Peter Selinger 2001-2017
</metadata>
<g transform="translate(0.000000,80.000000) scale(0.100000,-0.100000)"
fill="#000000" stroke="none">
<path d="M0 400 l0 -400 400 0 400 0 0 400 0 400 -400 0 -400 0 0 -400z m438
208 c17 -17 15 -63 -3 -78 -26 -22 -17 -29 43 -32 50 -3 57 -6 60 -25 2 -12
10 -27 18 -33 19 -17 18 -64 -3 -81 -14 -13 -13 -14 13 -19 22 -4 30 -11 32
-32 2 -15 10 -32 18 -38 17 -15 19 -61 2 -78 -15 -15 -61 -15 -76 0 -17 17
-15 63 3 78 25 21 17 30 -25 30 -42 0 -50 -9 -25 -30 18 -15 20 -61 3 -78 -15
-15 -61 -15 -76 0 -17 17 -15 63 2 78 8 6 16 23 18 38 2 21 10 28 32 32 26 5
27 6 13 19 -22 17 -22 59 0 83 15 17 12 18 -87 18 -99 0 -102 -1 -87 -18 22
-24 22 -66 0 -83 -14 -13 -13 -14 13 -19 22 -4 30 -11 32 -32 2 -15 10 -32 18
-38 17 -15 19 -61 2 -78 -15 -15 -61 -15 -76 0 -17 17 -15 63 3 78 25 21 17
30 -25 30 -42 0 -50 -9 -25 -30 18 -15 20 -61 3 -78 -15 -15 -61 -15 -76 0
-17 17 -15 63 2 78 8 6 16 23 18 38 2 21 10 28 32 32 26 5 27 6 13 19 -21 17
-22 64 -3 81 8 6 16 21 18 33 3 19 10 22 61 25 59 3 68 10 42 32 -18 15 -20
61 -3 78 7 7 24 12 38 12 14 0 31 -5 38 -12z"/>
<path d="M385 570 c-3 -5 1 -10 9 -10 9 0 16 5 16 10 0 6 -4 10 -9 10 -6 0
-13 -4 -16 -10z"/>
<path d="M265 400 c-3 -5 1 -10 9 -10 9 0 16 5 16 10 0 6 -4 10 -9 10 -6 0
-13 -4 -16 -10z"/>
<path d="M505 400 c-3 -5 1 -10 9 -10 9 0 16 5 16 10 0 6 -4 10 -9 10 -6 0
-13 -4 -16 -10z"/>
<path d="M205 230 c-3 -5 1 -10 9 -10 9 0 16 5 16 10 0 6 -4 10 -9 10 -6 0
-13 -4 -16 -10z"/>
<path d="M325 230 c-3 -5 1 -10 9 -10 9 0 16 5 16 10 0 6 -4 10 -9 10 -6 0
-13 -4 -16 -10z"/>
<path d="M445 230 c-3 -5 1 -10 9 -10 9 0 16 5 16 10 0 6 -4 10 -9 10 -6 0
-13 -4 -16 -10z"/>
<path d="M565 230 c-3 -5 1 -10 9 -10 9 0 16 5 16 10 0 6 -4 10 -9 10 -6 0
-13 -4 -16 -10z"/>
</g>
</svg>
